<svg viewBox="0 0 330 200" xmlns="http://www.w3.org/2000/svg"><g><g><g><g><g><line x1="51.5625" y1="177" x2="46.5625" y2="177" style="visibility: inherit;" fill="rgb(0, 0, 0)" stroke="rgb(204, 204, 204)" stroke-width="1px"></line><line x1="51.5625" y1="160.9090909090909" x2="46.5625" y2="160.9090909090909" style="visibility: inherit;" fill="rgb(0, 0, 0)" stroke="rgb(204, 204, 204)" stroke-width="1px"></line><line x1="51.5625" y1="144.8181818181818" x2="46.5625" y2="144.8181818181818" style="visibility: inherit;" fill="rgb(0, 0, 0)" stroke="rgb(204, 204, 204)" stroke-width="1px"></line><line x1="51.5625" y1="128.72727272727272" x2="46.5625" y2="128.72727272727272" style="visibility: inherit;" fill="rgb(0, 0, 0)" stroke="rgb(204, 204, 204)" stroke-width="1px"></line><line x1="51.5625" y1="112.63636363636364" x2="46.5625" y2="112.63636363636364" style="visibility: inherit;" fill="rgb(0, 0, 0)" stroke="rgb(204, 204, 204)" stroke-width="1px"></line><line x1="51.5625" y1="96.54545454545453" x2="46.5625" y2="96.54545454545453" style="visibility: inherit;" fill="rgb(0, 0, 0)" stroke="rgb(204, 204, 204)" stroke-width="1px"></line><line x1="51.5625" y1="80.45454545454544" x2="46.5625" y2="80.45454545454544" style="visibility: inherit;" fill="rgb(0, 0, 0)" stroke="rgb(204, 204, 204)" stroke-width="1px"></line><line x1="51.5625" y1="64.36363636363635" x2="46.5625" y2="64.36363636363635" style="visibility: inherit;" fill="rgb(0, 0, 0)" stroke="rgb(204, 204, 204)" stroke-width="1px"></line><line x1="51.5625" y1="48.272727272727266" x2="46.5625" y2="48.272727272727266" style="visibility: inherit;" fill="rgb(0, 0, 0)" stroke="rgb(204, 204, 204)" stroke-width="1px"></line><line x1="51.5625" y1="32.18181818181817" x2="46.5625" y2="32.18181818181817" style="visibility: inherit;" fill="rgb(0, 0, 0)" stroke="rgb(204, 204, 204)" stroke-width="1px"></line><line x1="51.5625" y1="16.090909090909076" x2="46.5625" y2="16.090909090909076" style="visibility: inherit;" fill="rgb(0, 0, 0)" stroke="rgb(204, 204, 204)" stroke-width="1px"></line><line x1="51.5625" y1="0" x2="46.5625" y2="0" style="visibility: inherit;" fill="rgb(0, 0, 0)" stroke="rgb(204, 204, 204)" stroke-width="1px"></line></g><g transform="translate(41.5625, 0)"><text x="0" y="177" dx="0em" dy="0.3em" style="text-anchor: end; visibility: hidden; font-family: Roboto, sans-serif; font-size: 12px; font-weight: 200;" fill="rgb(33, 33, 33)" stroke="none" stroke-width="1px">0.01</text><text x="0" y="160.9090909090909" dx="0em" dy="0.3em" style="text-anchor: end; visibility: inherit; font-family: Roboto, sans-serif; font-size: 12px; font-weight: 200;" fill="rgb(33, 33, 33)" stroke="none" stroke-width="1px">0.02</text><text x="0" y="144.8181818181818" dx="0em" dy="0.3em" style="text-anchor: end; visibility: hidden; font-family: Roboto, sans-serif; font-size: 12px; font-weight: 200;" fill="rgb(33, 33, 33)" stroke="none" stroke-width="1px">0.03</text><text x="0" y="128.72727272727272" dx="0em" dy="0.3em" style="text-anchor: end; visibility: inherit; font-family: Roboto, sans-serif; font-size: 12px; font-weight: 200;" fill="rgb(33, 33, 33)" stroke="none" stroke-width="1px">0.04</text><text x="0" y="112.63636363636364" dx="0em" dy="0.3em" style="text-anchor: end; visibility: hidden; font-family: Roboto, sans-serif; font-size: 12px; font-weight: 200;" fill="rgb(33, 33, 33)" stroke="none" stroke-width="1px">0.05</text><text x="0" y="96.54545454545453" dx="0em" dy="0.3em" style="text-anchor: end; visibility: inherit; font-family: Roboto, sans-serif; font-size: 12px; font-weight: 200;" fill="rgb(33, 33, 33)" stroke="none" stroke-width="1px">0.06</text><text x="0" y="80.45454545454544" dx="0em" dy="0.3em" style="text-anchor: end; visibility: hidden; font-family: Roboto, sans-serif; font-size: 12px; font-weight: 200;" fill="rgb(33, 33, 33)" stroke="none" stroke-width="1px">0.07</text><text x="0" y="64.36363636363635" dx="0em" dy="0.3em" style="text-anchor: end; visibility: inherit; font-family: Roboto, sans-serif; font-size: 12px; font-weight: 200;" fill="rgb(33, 33, 33)" stroke="none" stroke-width="1px">0.08</text><text x="0" y="48.272727272727266" dx="0em" dy="0.3em" style="text-anchor: end; visibility: hidden; font-family: Roboto, sans-serif; font-size: 12px; font-weight: 200;" fill="rgb(33, 33, 33)" stroke="none" stroke-width="1px">0.09</text><text x="0" y="32.18181818181817" dx="0em" dy="0.3em" style="text-anchor: end; visibility: inherit; font-family: Roboto, sans-serif; font-size: 12px; font-weight: 200;" fill="rgb(33, 33, 33)" stroke="none" stroke-width="1px">0.1</text><text x="0" y="16.090909090909076" dx="0em" dy="0.3em" style="text-anchor: end; visibility: hidden; font-family: Roboto, sans-serif; font-size: 12px; font-weight: 200;" fill="rgb(33, 33, 33)" stroke="none" stroke-width="1px">0.11</text><text x="0" y="0" dx="0em" dy="0.3em" style="text-anchor: end; visibility: hidden; font-family: Roboto, sans-serif; font-size: 12px; font-weight: 200;" fill="rgb(33, 33, 33)" stroke="none" stroke-width="1px">0.12</text></g><line x1="51.5625" y1="0" x2="51.5625" y2="177" fill="rgb(0, 0, 0)" stroke="rgb(204, 204, 204)" stroke-width="1px"></line></g></g><g transform="translate(51, 0)" clip-path="url(#clip_0)"><clipPath id="clip_0"><rect width="278" height="177"></rect></clipPath><g><g><g><line x1="0" y1="0" x2="0" y2="177" fill="rgb(0, 0, 0)" stroke="rgb(66, 66, 66)" stroke-width="1px" opacity="0.25"></line><line x1="21.418269230769234" y1="0" x2="21.418269230769234" y2="177" fill="rgb(0, 0, 0)" stroke="rgb(66, 66, 66)" stroke-width="1px" opacity="0.25"></line><line x1="42.83653846153847" y1="0" x2="42.83653846153847" y2="177" fill="rgb(0, 0, 0)" stroke="rgb(66, 66, 66)" stroke-width="1px" opacity="0.25"></line><line x1="64.2548076923077" y1="0" x2="64.2548076923077" y2="177" fill="rgb(0, 0, 0)" stroke="rgb(66, 66, 66)" stroke-width="1px" opacity="0.25"></line><line x1="85.67307692307693" y1="0" x2="85.67307692307693" y2="177" fill="rgb(0, 0, 0)" stroke="rgb(66, 66, 66)" stroke-width="1px" opacity="0.25"></line><line x1="107.09134615384616" y1="0" x2="107.09134615384616" y2="177" fill="rgb(0, 0, 0)" stroke="rgb(66, 66, 66)" stroke-width="1px" opacity="0.25"></line><line x1="128.5096153846154" y1="0" x2="128.5096153846154" y2="177" fill="rgb(0, 0, 0)" stroke="rgb(66, 66, 66)" stroke-width="1px" opacity="0.25"></line><line x1="149.9278846153846" y1="0" x2="149.9278846153846" y2="177" fill="rgb(0, 0, 0)" stroke="rgb(66, 66, 66)" stroke-width="1px" opacity="0.25"></line><line x1="171.34615384615387" y1="0" x2="171.34615384615387" y2="177" fill="rgb(0, 0, 0)" stroke="rgb(66, 66, 66)" stroke-width="1px" opacity="0.25"></line><line x1="192.76442307692307" y1="0" x2="192.76442307692307" y2="177" fill="rgb(0, 0, 0)" stroke="rgb(66, 66, 66)" stroke-width="1px" opacity="0.25"></line><line x1="214.18269230769232" y1="0" x2="214.18269230769232" y2="177" fill="rgb(0, 0, 0)" stroke="rgb(66, 66, 66)" stroke-width="1px" opacity="0.25"></line><line x1="235.60096153846155" y1="0" x2="235.60096153846155" y2="177" fill="rgb(0, 0, 0)" stroke="rgb(66, 66, 66)" stroke-width="1px" opacity="0.25"></line><line x1="257.0192307692308" y1="0" x2="257.0192307692308" y2="177" fill="rgb(0, 0, 0)" stroke="rgb(66, 66, 66)" stroke-width="1px" opacity="0.25"></line><line x1="278.4375" y1="0" x2="278.4375" y2="177" fill="rgb(0, 0, 0)" stroke="rgb(66, 66, 66)" stroke-width="1px" opacity="0.25"></line></g><g><line x1="0" y1="177" x2="278.4375" y2="177" fill="rgb(0, 0, 0)" stroke="rgb(66, 66, 66)" stroke-width="1px" opacity="0.25"></line><line x1="0" y1="160.9090909090909" x2="278.4375" y2="160.9090909090909" fill="rgb(0, 0, 0)" stroke="rgb(66, 66, 66)" stroke-width="1px" opacity="0.25"></line><line x1="0" y1="144.8181818181818" x2="278.4375" y2="144.8181818181818" fill="rgb(0, 0, 0)" stroke="rgb(66, 66, 66)" stroke-width="1px" opacity="0.25"></line><line x1="0" y1="128.72727272727272" x2="278.4375" y2="128.72727272727272" fill="rgb(0, 0, 0)" stroke="rgb(66, 66, 66)" stroke-width="1px" opacity="0.25"></line><line x1="0" y1="112.63636363636364" x2="278.4375" y2="112.63636363636364" fill="rgb(0, 0, 0)" stroke="rgb(66, 66, 66)" stroke-width="1px" opacity="0.25"></line><line x1="0" y1="96.54545454545453" x2="278.4375" y2="96.54545454545453" fill="rgb(0, 0, 0)" stroke="rgb(66, 66, 66)" stroke-width="1px" opacity="0.25"></line><line x1="0" y1="80.45454545454544" x2="278.4375" y2="80.45454545454544" fill="rgb(0, 0, 0)" stroke="rgb(66, 66, 66)" stroke-width="1px" opacity="0.25"></line><line x1="0" y1="64.36363636363635" x2="278.4375" y2="64.36363636363635" fill="rgb(0, 0, 0)" stroke="rgb(66, 66, 66)" stroke-width="1px" opacity="0.25"></line><line x1="0" y1="48.272727272727266" x2="278.4375" y2="48.272727272727266" fill="rgb(0, 0, 0)" stroke="rgb(66, 66, 66)" stroke-width="1px" opacity="0.25"></line><line x1="0" y1="32.18181818181817" x2="278.4375" y2="32.18181818181817" fill="rgb(0, 0, 0)" stroke="rgb(66, 66, 66)" stroke-width="1px" opacity="0.25"></line><line x1="0" y1="16.090909090909076" x2="278.4375" y2="16.090909090909076" fill="rgb(0, 0, 0)" stroke="rgb(66, 66, 66)" stroke-width="1px" opacity="0.25"></line><line x1="0" y1="0" x2="278.4375" y2="0" fill="rgb(0, 0, 0)" stroke="rgb(66, 66, 66)" stroke-width="1px" opacity="0.25"></line></g></g></g><g><g><line x1="0" y1="193.09090909090907" x2="278.4375" y2="193.09090909090907" fill="rgb(0, 0, 0)" stroke="rgb(153, 153, 153)" stroke-width="1.5px"></line></g></g><g><g><line x1="21.418269230769234" y1="0" x2="21.418269230769234" y2="177" fill="rgb(0, 0, 0)" stroke="rgb(153, 153, 153)" stroke-width="1.5px"></line></g></g><g><g><g><g><g><path stroke="rgb(255, 112, 67)" stroke-width="2px" d="M21.825216346153848,75.13100381060079L22.446346153846154,130.77826797310797L22.767620192307692,121.35859817029399L22.78903846153846,73.82201827840514L22.960384615384616,91.76766689636892L23.08889423076923,107.41827468515673L23.195985576923075,105.6295834312742L23.345913461538462,115.16438646701891L23.64576923076923,111.58156835971386L23.73144230769231,101.03977327700177L24.181225961538463,103.59141924105765L24.2240625,108.67504223879524L24.802355769230772,113.37625128071976L24.866610576923076,105.18627312204973L24.909447115384616,110.35153023215315L24.952283653846152,104.73290273557578L25.123629807692307,105.968669847551L25.530576923076925,105.11439356894904L25.787596153846152,107.92038865043627L26.344471153846154,111.57606899626664L26.665745192307693,109.41895823424026L26.68716346153846,110.9139923239703L26.987019230769228,109.14377360808238L27.244038461538462,107.42138897667088L27.30829326923077,109.07915128227162L27.47963942307692,108.8277838717188L27.54389423076923,110.26219921059935L27.758076923076924,111.56980986482236L28.20786057692308,112.09441509388284L28.272115384615383,114.24368421910424L28.850408653846152,113.32050469696297L29.107427884615383,112.32434864055902L29.27877403846154,109.05800017727782L29.53579326923077,111.06511804965766L29.707139423076924,107.64975976027686L29.7928125,108.20067089731712L30.04983173076923,110.47593061988638L30.328269230769234,110.52490039771723L30.778052884615388,105.95904300940208L30.799471153846152,106.41157571375268L30.842307692307692,103.96273621909708L30.992235576923076,104.15857144527293L31.313509615384614,104.9533607869821L31.399182692307694,106.07490009538577L31.61336538461538,101.82120163137087L31.72045673076923,95.23866051939528L31.741875,95.43877943805536L31.870384615384616,93.60912508103296L32.363004807692306,94.98929213149256L32.40584134615384,96.08230003519677L32.427259615384614,97.72013646896328L32.51293269230769,98.27951178903831L32.855624999999996,99.89069361026844L32.96271634615385,101.26184099900367L33.00555288461538,97.60474246451346L33.262572115384614,97.60347174556004L33.348245192307694,99.17031677350992L33.47675480769231,96.32046837074944L34.07646634615384,96.01938394013702L34.16213942307692,97.53117922601896L34.20497596153846,98.84135243685853L34.911778846153844,100.11159756662957L35.083125,100.99180915377742L35.21163461538462,99.42357556548427L35.23305288461539,100.54063985341753L35.53290865384615,100.6877800551097L35.72567307692308,99.21426076514564L35.89701923076923,98.46453975866928L36.88225961538462,97.2705083438825L36.96793269230769,98.10735665489936L37.37487980769231,93.82667493252292L37.8032451923077,92.97542206065305L38.03884615384615,93.10697025667521L38.06026442307692,90.81015645503878L38.18877403846154,90.59153617266651L38.317283653846154,91.75392854938156L38.65997596153846,92.65549873670884L38.98125,91.60913740604164L39.2596875,92.73439260042842L39.79514423076923,93.58008989060512L39.987908653846155,94.72582675454356L40.41627403846154,95.01067079691535L40.737548076923076,93.4390758906352L41.35867788461538,93.43287550862617L41.61569711538461,94.315996290561L41.765625,94.67236877845096L42.83653846153847,95.31777206426234L42.90079326923077,95.82927433693143L42.943629807692304,94.34453782223129L43.17923076923077,91.31475437874188L43.32915865384616,91.88851653153144L43.41483173076923,89.82531261244512L43.45766826923077,89.89574949037376L43.650432692307696,88.74770699838031L44.05737980769231,89.47138150428891L44.35723557692308,90.40030015726755L44.378653846153846,91.4474507849329L44.50716346153847,91.86336793536576L44.956947115384615,92.31830316106466L45.042620192307695,91.84755511986204L45.08545673076923,92.30500003592138L45.19254807692308,93.03034438031744L45.23538461538462,92.82438956408626L45.535240384615385,92.72304063167847L45.685168269230765,93.11913091483505L45.98502403846154,93.31510815392257L46.09211538461539,93.67030783739278L46.113533653846154,94.131925025742L46.370552884615385,95.01944935711934L46.58473557692307,94.39138140189546L46.627572115384616,95.00449221164332L46.79891826923077,95.17348193266577L46.9916826923077,94.43717958400525L47.01310096153846,94.47917817521648L47.527139423076925,95.1711591464332L47.67706730769231,95.52852817224873L48.12685096153846,96.08166323423643L48.23394230769231,95.97423965703855L48.255360576923074,96.09326415760229L48.29819711538462,95.2355843192425L48.362451923076925,95.20298612629327L48.448125,95.9946721888005L48.57663461538462,96.37644102470846L48.66230769230769,97.15226585362274L48.76939903846154,97.33658903180897L49.24060096153846,97.9066205809807L49.81889423076923,97.02392297150314L50.247259615384614,95.40848349101842L50.56853365384615,94.46415545813761L50.654206730769225,93.19735470436059L50.88980769230769,93.5938679862202L50.91122596153846,92.75136243464645L51.789375,92.96345032356845L52.23915865384616,91.33338066625706L52.26057692307692,91.12138782346976L52.64610576923077,91.55101234080404L52.667524038461536,92.22530540533185L53.01021634615385,92.97209819923522L53.05305288461539,92.14167830241138L53.43858173076923,92.58002441771694L53.60992788461539,93.17246287749929L53.78127403846154,93.87058079214269L53.84552884615385,94.38001005862559L54.59516826923077,95.01011854715914L54.659423076923076,95.55499518212991L54.95927884615384,95.84712948221448L55.02353365384615,96.23465309627622L55.130625,96.42145492006237L55.38764423076923,96.62357463437701L55.6232451923077,96.59125328519336L55.730336538461536,96.57234350049283L55.77317307692307,97.19964036819738L56.28721153846154,97.32205975683826L56.458557692307686,97.36981489832218L57.20819711538462,97.82987532418528L57.40096153846154,97.93771060964019L57.52947115384615,98.16454100772842L57.893581730769235,98.6844294276712L57.93641826923077,99.22675342790184L58.00067307692308,99.40210320883527L58.08634615384616,98.8190208448117L59.457115384615385,98.97030879935366L59.49995192307692,98.9506591027112L59.75697115384616,98.6214054437737L59.82122596153847,98.88274711827033L59.99257211538461,99.01286455635454L60.99923076923077,99.00890383146017L61.08490384615384,99.59970611263071L61.27766826923077,99.50451685435449L61.42759615384615,99.21814833488216L61.87737980769231,99.10323708360198L62.112980769230774,99.2134529439881L62.17723557692308,98.23329975055486L62.3057451923077,97.72005999743807L62.32716346153846,97.77281419961017L62.6484375,98.12073715874313L62.90545673076923,97.7691892655888L62.99112980769231,98.27881572806135L63.098221153846154,98.80981306703505L63.1410576923077,98.69297290305128L63.41949519230769,98.93075885568044L63.44091346153846,99.2747246677134L63.54800480769231,99.30164281255821L63.82644230769231,99.83747757460111L65.77550480769231,100.01017737080625L65.96826923076924,100.29497147149307L66.18245192307693,99.45520652886282L66.41805288461538,99.85012142536459L66.71790865384615,100.26530788488245L66.73932692307693,100.78827881659731L66.825,100.65590437649331L66.84641826923077,101.07490224852796L66.99634615384616,101.0172380400284L67.25336538461538,100.84512232050496L67.89591346153847,100.90426786812243L68.4313701923077,100.92895571492426L68.75264423076922,101.16714834338516L68.88115384615385,101.44469520008795L69.39519230769231,101.43385125130705L69.50228365384616,100.53073570782199L71.04439903846155,100.93261334289843L71.10865384615384,101.35123380028821L71.60127403846154,101.63142987852432L71.96538461538462,102.03892091122009L72.71502403846155,102.48342096329745L73.61459134615384,102.69078604523209L73.7216826923077,101.30715449844175L74.00012019230769,101.60717407114585L74.17146634615385,101.62412833728789L74.23572115384616,101.68326581485852L74.66408653846153,102.00339118741783L74.94252403846153,102.2004750906258L75.0496153846154,102.41424563064572L75.34947115384615,102.83605591076302L75.3923076923077,103.21706524962958L75.58507211538462,103.46819148065359L75.62790865384615,103.06849753382288L76.39896634615386,103.46840607213673L76.63456730769231,103.88823031564316L76.65598557692307,104.11751088281059L76.87016826923076,104.06155778436278L77.10576923076924,104.44603422493178L77.25569711538462,104.22530356647037L77.53413461538462,103.75675629563806L77.70548076923076,104.0397172656288L77.87682692307692,104.14433928479413L78.04817307692308,104.5511007165444L78.62646634615385,103.50308435332049L78.71213942307692,103.44287381449173L78.86206730769231,103.4754193348094L78.92632211538462,103.7411197636479L78.96915865384615,103.5621302219807L79.03341346153846,103.80987350736059L79.11908653846153,104.20865084685079L79.31185096153847,104.39444989445404L79.44036057692308,103.49523275385032L79.54745192307692,103.55923165739084L79.63312499999999,103.5121412957179L79.89014423076924,103.52988401065633L79.91156249999999,103.70343830741783L79.99723557692307,103.95563563200935L80.10432692307693,104.30956454091195L80.12574519230769,104.48047537316216L80.4041826923077,104.77414382148231L80.42560096153846,105.16207581116105L80.44701923076924,105.40127883076968L80.55411057692308,105.7354848258165L80.66120192307692,106.12048987270754L80.72545673076924,106.38026951223405L80.93963942307693,106.76626957180027L81.0895673076923,106.83354118403501L81.66786057692308,107.19594803244595L82.1390625,107.46106297264393L82.3532451923077,107.23113236890279L82.71735576923076,107.21089450612193L82.73877403846154,107.17267743471184L84.00245192307693,106.91318669210409L84.28088942307693,107.09714607305301L84.66641826923077,107.24685270014291L84.73067307692308,107.28089478005049L84.88060096153845,106.71001078025256L84.94485576923077,106.89022168582835L85.11620192307693,107.16226672257022L85.60882211538461,106.47246618109003L86.10144230769231,106.75088052486355L86.42271634615385,106.86053521459685L86.70115384615384,107.17894225891565L87.47221153846155,107.31981094280526L87.49362980769232,107.50373174310009L87.90057692307693,107.83433555357828L87.92199519230769,108.0093889361734L87.94341346153846,107.73611387171604L88.15759615384616,107.8148809282162L88.24326923076923,107.75423896199639L88.26468750000001,107.80505212666147L88.28610576923077,107.93753235368487L88.43603365384615,108.0598099815672L88.80014423076923,108.27958991590941L89.39985576923077,108.07212079493773L89.8068028846154,108.02397861780359L89.95673076923077,108.09145295361743L90.06382211538461,107.70809466599555L90.34225961538462,107.8668110093482L90.40651442307691,107.80420913373082L90.59927884615385,108.03751724797145L90.85629807692307,108.12403265222927L91.37033653846153,108.34778983481536L91.43459134615385,108.6457564558998L92.24848557692307,108.31709416913888L92.97670673076924,108.36960459519473L93.31939903846154,108.43637468055125L93.70492788461539,108.204496688233L93.91911057692307,108.52801702368383L93.94052884615385,108.39844238805793L94.11187500000001,108.62823851792591L94.34747596153846,108.68357451054773L94.64733173076924,109.00665562715253L94.81867788461538,109.26244882711339L94.99002403846154,109.1711078598648L95.56831730769231,108.92674581076771L96.03951923076923,109.2147074449468L96.0609375,109.25361474890286L96.08235576923076,109.40171567205843L96.21086538461537,109.6657281871474L96.25370192307692,109.92215039389599L96.40362980769231,110.09701648342231L96.9605048076923,110.0247117988339L97.34603365384615,110.27044229765258L97.81723557692308,110.57705599108411L97.88149038461538,110.53080351776634L98.03141826923077,110.60456734000292L98.2884375,110.74024500332872L98.54545673076922,111.04057535858368L98.82389423076923,111.28415710727076L98.84531249999999,111.4525301983055L98.88814903846153,111.33105068359004L99.18800480769231,111.51775940097559L99.70204326923077,111.12486978325704L99.76629807692308,111.41652865774694L99.80913461538461,111.69442693115232L99.85197115384615,111.76796025187215L99.91622596153847,112.00922687958061L100.00189903846154,112.18079061469436L100.06615384615384,112.32693886467702L100.47310096153846,112.41531540231009L100.68728365384615,112.68607698344225L100.94430288461538,112.88449759928264L101.05139423076922,113.16556630300973L101.65110576923077,113.36061237550739L101.67252403846155,113.59571108816367L101.71536057692309,111.45335525205412L101.82245192307693,111.73512761983838L101.8438701923077,111.48654134679259L101.99379807692308,110.97696123366713L102.03663461538461,111.22699033566204L102.44358173076922,111.49598121736439L102.465,111.47658628120368L102.55067307692308,111.71697810336336L102.61492788461538,111.91630665360043L103.10754807692307,112.07845466310336L103.8571875,112.22419649586442L103.90002403846154,112.08812653254095L104.11420673076923,112.17775733277885L104.30697115384616,112.23518859551886L105.01377403846155,112.37652213307675L105.20653846153846,112.51311809207328L105.29221153846154,112.50027500595138L105.42072115384616,112.62842258177243L105.67774038461539,112.7252456373873L105.74199519230768,112.78363302169512L106.10610576923078,113.02068406939942L106.38454326923078,113.20553000099477L106.57730769230768,113.37097440701442L106.7058173076923,113.41617993901464L107.36978365384616,113.53054480708663L107.41262019230768,113.60757167139533L107.60538461538462,113.78802161220788L107.84098557692307,113.40247006836921L107.96949519230769,113.22941130191246L108.11942307692307,113.42921033178955L108.91189903846153,113.67463142168397L109.44735576923078,113.88315452091511L109.57586538461538,113.47767924694942L109.704375,113.55120078136727L109.7686298076923,113.79471600252828L110.23983173076924,114.0471615708573L110.45401442307691,113.37141492695248L110.98947115384615,112.89693840575612L111.22507211538462,112.25539925128857L111.54634615384614,112.11747322698152L111.84620192307692,112.22547858322561L111.97471153846153,112.38120855849061L112.38165865384615,111.70691319911116L112.44591346153847,111.32370675582519L112.51016826923076,111.31587071496955L112.61725961538463,111.21409012464228L113.13129807692307,111.03048151897127L113.92377403846153,111.20298750521142L114.03086538461538,111.36260215383058L114.13795673076923,111.10786160678764L114.26646634615385,110.95029899783893L115.16603365384616,110.46321674370441L115.23028846153846,110.5883598216688L115.57298076923077,110.52613148314742L116.15127403846154,110.48959328048805L116.42971153846153,110.63724005746211L116.60105769230769,110.15232869091687L116.83665865384616,110.24706782054285L117.09367788461539,110.10828003173876L117.58629807692309,110.29589331596077L117.7148076923077,110.23090154026534L118.35735576923076,110.33886210411583L118.57153846153845,110.41522726488469L118.65721153846154,110.54649846459144L119.19266826923077,110.79533731482286L119.27834134615384,110.9656246434132L119.40685096153845,110.91206581495223L120.09223557692307,110.88866298266986L120.15649038461538,110.8789106031149L120.2207451923077,111.11369377572875L121.01322115384616,110.405148735654L121.1203125,110.52392530786649L121.20598557692307,110.54857949000863L121.22740384615385,110.73657223250989L121.39874999999999,110.7624164841885L121.63435096153846,110.8955217533647L121.80569711538462,111.08225823176805L121.89137019230769,111.27201103225484L121.93420673076923,111.3696151807951L122.06271634615385,111.3835541118545L122.23406250000001,111.2370149213193L122.25548076923077,109.59302756722965L122.44824519230768,109.73838273534207L122.74810096153846,109.57291903415505L122.89802884615385,109.6794993176957L123.36923076923077,109.72969453201523L123.51915865384616,109.79511410369899L123.64766826923078,109.84391178147372L123.73334134615385,109.99112861742299L123.75475961538461,110.18267412865431L124.33305288461538,110.37459424442545L124.39730769230769,110.56305435165407L124.4615625,110.64316103135656L124.54723557692307,110.60598385284435L124.88992788461539,110.77454712976788L124.93276442307692,110.90578444656013L124.97560096153846,110.69316238012041L124.99701923076923,110.7922592878059L125.0184375,110.21467240534913L125.18978365384616,110.31088694657052L126.00367788461539,110.3645225329085L126.2821153846154,110.59018340054892L126.60338942307692,110.69646816124616L127.01033653846153,110.68898731411363L127.09600961538462,110.74306357084329L127.24593750000001,110.49209702433392L127.33161057692307,110.47379763476255L127.43870192307692,110.61485540877362L128.10266826923078,110.74206815412231L128.33826923076924,110.9656748272361L129.02365384615385,110.97058172512718L129.5376923076923,110.90454873735224L129.94463942307692,110.17477564846264L130.22307692307692,110.266983066043L130.24449519230768,110.49185848066183L130.41584134615385,110.5853656756349L130.45867788461538,110.6193385723905L130.56576923076923,110.54212471569423L131.3582451923077,110.31303414982486L131.44391826923078,110.34793314309658L131.52959134615386,109.85989556422506L131.7651923076923,109.66200761243473L131.78661057692307,109.62427336473574L131.82944711538462,109.71588189857734L131.8508653846154,108.18533405843954L132.53625,108.23423550423846L132.77185096153846,108.35965945426805L132.8146875,108.54485614992737L132.92177884615384,108.29982738331839L132.96461538461537,108.15025563640165L133.07170673076925,108.31811652491287L133.20021634615387,108.3747432466862L133.35014423076922,108.24250774687735L133.6285817307692,108.3642825563179L133.94985576923077,108.57603598393658L134.1426201923077,108.76937081999826L134.206875,108.95167708596054L134.84942307692307,108.94531489843605L135.34204326923077,109.11967241276362L135.36346153846154,109.2269178346637L135.42771634615383,109.20185952026398L135.4705528846154,109.29164048950058L135.55622596153847,109.4087755359566L135.6847355769231,109.46754687203823L136.2844471153846,109.30607982483583L136.45579326923078,109.31004368203322L136.94841346153845,109.50484648886497L137.1411778846154,109.57761112713153L137.16259615384615,109.56509547712899L137.46245192307694,109.25963861320955L137.61237980769232,109.28206903905648L138.06216346153846,109.39319384713987L138.2549278846154,109.42841375067134L138.3191826923077,109.26469765664311L138.36201923076922,109.17920800438498L139.32584134615385,109.15144371389202L139.43293269230767,108.87025162002396L139.45435096153847,109.01060084885292L139.6899519230769,109.13935358063964L140.20399038461537,108.98727412026356L140.67519230769233,108.90742998260117L141.46766826923078,109.0392083913212L142.51716346153847,109.23283038888442L142.81701923076923,109.35356987932772L144.01644230769233,109.52717749988558L144.16637019230768,109.73618913183346L144.38055288461538,109.93978408285642L144.63757211538461,110.09815582426573L144.7018269230769,110.30339396091223L144.74466346153847,110.49022945959379L144.76608173076923,110.61392414753435L145.25870192307693,110.76207159370794L145.4300480769231,110.9220941696963L146.35103365384614,111.12682655743387L147.0792548076923,111.32867398874453L147.35769230769233,111.21178883936467L147.37911057692307,111.3908419683906L147.4219471153846,111.58789921278705L148.83555288461537,111.77971020977529L148.94264423076925,111.94915809044738L149.00689903846154,112.02714950268374L149.17824519230768,112.18449652048668L149.54235576923077,112.13703082055402L149.7351201923077,112.14341531422724L149.88504807692306,112.2223851842604L150.0135576923077,112.13457256579123L150.1420673076923,112.15853789530367L150.913125,112.29446641880446L151.08447115384615,112.36934275186427L151.57709134615385,112.51452921422114L151.61992788461538,112.49390146677851L151.64134615384614,112.48978639443413L152.32673076923078,112.57105257403079L152.3695673076923,112.50466581614894L152.7979326923077,112.62627325823037L152.90502403846153,112.81248668749939L152.94786057692306,112.7733499836026L152.99069711538462,112.89046590528383L153.5475721153846,112.98151185074447L154.34004807692307,112.96191849865757L154.4685576923077,112.84740106105973L154.68274038461539,112.97059094107291L154.76841346153847,112.79902440014472L154.85408653846153,112.85936233319755L155.1539423076923,112.89284147650814L155.32528846153846,113.07896630775825L155.925,113.18599672198741L155.96783653846154,113.30421605132797L156.11776442307692,113.3873399055423L156.28911057692306,113.38281744054824L156.31052884615383,113.4991741768831L156.37478365384615,113.6290065638817L156.67463942307694,113.71465450362057L156.9744951923077,113.86673703372745L157.06016826923076,113.64417382388906L157.1030048076923,113.81310321021597L157.3814423076923,113.85685509553679L157.61704326923075,113.94491814866471L157.63846153846154,113.67821083597745L157.7455528846154,113.60303237356355L157.78838942307692,113.70019127892148L157.85264423076924,113.84759439206053L158.6451201923077,113.87770929882274L159.03064903846152,114.00605981062994L159.43759615384616,114.12676495077024L159.56610576923075,114.27041885274201L159.78028846153848,114.45065359092955L160.0801442307692,114.59914064476848L160.46567307692308,114.67302559281511L160.52992788461538,114.71889017827213L161.25814903846154,114.89268354393562L161.32240384615383,114.56272026567974L161.51516826923077,114.5636266302043L161.64367788461539,114.73668937926286L161.7507692307692,114.88788310242332L162.0292067307692,114.981967033962L162.13629807692308,114.93201766877914L162.4789903846154,114.74845925672918L162.58608173076922,114.6266429954127L162.69317307692307,114.76266914592301L162.77884615384616,114.8458421440866L163.12153846153845,114.60374829479116L163.4213942307692,114.38888483207347L163.8497596153846,114.25905250263749L164.10677884615384,114.29767257067961L164.36379807692308,114.27675717748295L165.1134375,114.06361258077415L165.26336538461538,114.17357971618131L165.37045673076923,114.18722797947854L165.41329326923076,114.2481704744L165.45612980769232,114.35099130047793L165.58463942307694,114.52001404601792L165.6703125,114.6258831867124L166.0130048076923,114.65555787668914L166.24860576923078,114.79472192101326L166.5698798076923,114.93476690329666L166.7626442307692,114.98028608958721L167.12675480769232,115.1279705780852L167.5337019230769,115.17913770642187L167.87639423076922,115.3284860938163L167.98348557692307,115.37293153023363L168.02632211538463,115.44746782649503L168.15483173076922,115.43150843663044L168.34759615384615,115.39256706089166L168.69028846153844,115.43235533893247L169.52560096153846,115.58884423066726L169.5684375,115.66327836885971L169.6326923076923,115.71004808115042L169.86829326923078,115.76733423434284L170.01822115384613,115.68273073333118L170.8321153846154,115.84819437757724L171.1748076923077,115.80596934538084L171.28189903846155,115.90089200668073L171.32473557692308,115.87146437749978L171.3889903846154,115.92160495398491L171.75310096153845,116.08571046155444L171.96728365384615,116.03381719188131L171.98870192307692,116.1506305626283L172.30997596153844,116.30533405156025L172.52415865384614,116.32965882765531L173.23096153846154,116.42215996331096L173.72358173076924,116.58221787266828L173.87350961538462,116.68950449030571L173.9377644230769,116.66824638885716L174.06627403846156,116.74443856567976L174.88016826923078,116.83972426317021L175.15860576923077,116.84093670240297L175.18002403846154,116.95962202201832L175.2228605769231,117.0769798125931L175.35137019230768,117.14371930122327L175.415625,117.25523608611321L175.80115384615385,117.31718177234848L176.1866826923077,117.15734999522407L176.70072115384613,117.07389575691833L176.78639423076922,116.98098397178L177.04341346153845,117.07557407032837L177.2361778846154,117.1650334702943L177.8358894230769,117.11556241801689L177.96439903846155,117.2755252412898L178.52127403846154,117.43288028448342L178.6069471153846,117.48847158364339L178.64978365384616,117.36352633042935L178.92822115384615,117.31468878363401L179.0353125,117.25079403845633L179.2280769230769,117.31921947952848L179.44225961538461,117.44913520124759L179.6136057692308,117.57896753046928L180.29899038461537,117.71340083907737L180.44891826923077,117.653330082203L180.68451923076924,117.79762462116759L180.7059375,117.55223114405045L181.30564903846155,117.65558306921328L181.3913221153846,117.77209014382072L181.43415865384614,117.73382343682864L181.69117788461537,117.8738226761661L182.20521634615383,117.93101227299111L182.46223557692306,118.08701329164221L182.63358173076924,118.14691197548666L182.76209134615382,118.2042306283576L182.99769230769232,117.70863811059418L183.16903846153846,117.81107490650493L183.21187500000002,117.83493532989763L183.3403846153846,117.85105009413573L183.46889423076922,118.00531848519623L184.06860576923077,117.49975099395857L184.21853365384615,117.4951791806148L184.26137019230768,117.62426549099834L184.30420673076924,117.4842535993882L184.36846153846156,117.55300613625084L185.03242788461537,117.6897439707176L185.05384615384614,117.82210289728674L185.16093750000002,117.97392991117125L185.46079326923078,117.96045945111986L185.5036298076923,117.97502493058822L185.52504807692307,117.9663851972986L186.81014423076925,118.11769623707526L186.93865384615384,118.26606688562421L187.00290865384616,118.26995002517235L187.55978365384615,118.01655526003458L187.58120192307692,118.05322387449232L187.64545673076924,117.96304073466278L187.666875,117.97461946320415L188.37367788461538,118.01132333129702L188.39509615384617,118.13816379764025L188.95197115384616,118.28648656960063L189.31608173076924,118.25331318165159L189.4017548076923,118.35410574371966L189.57310096153847,117.99961350043337L189.6801923076923,118.07814220581416L189.70161057692306,118.15264841553802L189.8301201923077,118.16044186033382L190.25848557692308,118.26883576962665L190.53692307692307,118.30717396765033L190.6654326923077,118.41578848570259L191.008125,118.56122502370457L191.20088942307692,118.55639171770753L191.24372596153847,118.67930758809041L191.26514423076924,118.62640302869231L192.48598557692307,118.37470885801672L193.34271634615385,118.4193130780695L193.40697115384617,118.3171994454148L193.42838942307694,117.99723202192826L193.47122596153847,118.07457332298269L193.77108173076925,117.7328471388565L193.9424278846154,117.87267080645994L194.43504807692307,117.98469262946509L194.45646634615383,118.04398178971735L194.8419951923077,118.18223775397746L195.3988701923077,118.3185635339087L195.82723557692307,118.4038972932699L195.87007211538463,118.45820556700909L196.2770192307692,118.48386076588439L196.29843749999998,118.3043701563279L196.74822115384617,118.28333305174442L196.89814903846153,118.41139993549847L197.0694951923077,118.39774905391417L197.09091346153843,118.42131416504662L197.4121875,118.55323265591674L197.69062499999998,118.64063294273494L197.71204326923078,118.6324757042744L198.2475,118.59466421630123L198.71870192307694,118.46021823837717L198.84721153846152,118.2847564035537L198.91146634615384,118.35533739868204L198.9328846153846,118.46224075629084L199.0185576923077,118.13345747366108L199.12564903846155,118.27026160793879L199.2327403846154,118.3644770081067L200.26081730769232,117.90690048989656L200.32507211538461,117.91812380625868L200.56067307692308,118.02630376062854L200.7534375,118.12939431183203L200.86052884615384,118.20414270968689L201.28889423076922,118.32447783519157L201.58875,118.1720113060079L201.69584134615386,117.98418590361044L202.5739903846154,118.07042151101469L202.65966346153846,118.21008318619951L203.30221153846153,118.23842025534255L203.58064903846153,118.31542965512905L203.9447596153846,118.30986733719435L204.13752403846155,118.26483435875517L204.33028846153846,118.30542673211245L204.5230528846154,118.43352838386687L204.65156249999998,118.45472359799314L204.67298076923078,118.285467459814L204.84432692307692,118.3960029803481L205.65822115384614,118.50249460735755L205.7653125,118.5391965057744L206.02233173076922,118.4629287289216L206.06516826923078,118.50757654190629L206.08658653846155,118.62369664356605L206.21509615384613,118.5508816967765L206.90048076923077,118.52740918307677L206.98615384615385,118.64736412368391L207.6501201923077,118.75720354181826L207.7786298076923,118.8910225970443L208.0570673076923,118.72094702929488L208.16415865384613,118.73959007159041L208.29266826923077,118.6953015889894L208.72103365384615,118.81248860903345L208.89237980769232,118.85102965244074L208.93521634615385,118.97208753417488L209.40641826923078,119.08932831294645L209.4492548076923,119.20059742973423L209.66343750000001,119.33890696218825L209.89903846153845,119.33608077362281L209.98471153846154,119.43443812394014L210.3488221153846,119.40198661836985L210.41307692307691,119.49885828200014L210.6272596153846,119.35990528567322L211.31264423076922,119.23630093563078L211.4197355769231,119.34987866695255L211.56966346153845,119.41510622380297L211.80526442307692,119.43564981482555L211.93377403846154,119.42523201782002L212.08370192307692,119.29795602373363L212.42639423076923,119.36635604710227L212.51206730769232,119.30163250844554L212.91901442307693,119.4268580033974L213.47588942307692,119.53338300942438L213.5615625,119.53713932344331L213.75432692307692,119.65815311132096L213.88283653846156,119.79146426040815L213.90425480769233,119.64807220222269L213.98992788461538,119.49234039842457L214.3326201923077,119.42471320628819L214.91091346153846,119.55572578927112L215.25360576923077,119.6001560677335L215.44637019230768,119.72862587886424L215.59629807692306,119.82908005361733L215.7033894230769,119.93513554047692L216.71004807692307,120.01837093304144L216.79572115384616,120.06331585439807L217.4596875,119.87246976450803L217.63103365384615,119.96329819145093L217.6524519230769,120.05615598043056L217.69528846153847,120.13278797660479L217.71670673076923,120.253937930191L218.20932692307693,120.24822135209709L218.27358173076922,120.18888814897696L218.33783653846154,120.1705292636261L218.48776442307692,120.2826109648774L218.55201923076925,120.34823472843607L218.65911057692307,120.1998509444127L218.74478365384616,120.05932961247944L218.93754807692306,120.1005349354476L218.95896634615383,120.17955918383494L219.04463942307692,120.0175270912319L219.21598557692306,119.95484721218632L219.60151442307694,120.08665205204504L219.6229326923077,120.00836626318451L220.43682692307692,119.7537448758825L220.69384615384615,119.80780364112687L220.7366826923077,119.938151977589L220.88661057692306,120.01499285343226L221.1007932692308,119.91254617036986L221.12221153846153,119.86973034095051L221.20788461538461,119.93077299715745L221.25072115384614,120.05567104875203L221.33639423076923,120.08913814888142L221.40064903846152,120.10157585630266L221.59341346153846,120.20523330748591L221.74334134615384,120.24980751161262L221.89326923076925,120.27606549973336L222.02177884615384,120.30256097294516L222.0431971153846,120.40270617137216L222.17170673076924,120.33827411315792L222.27879807692307,120.44888444349469L222.4929807692308,120.4732353433193L222.70716346153847,120.59277814254018L222.83567307692306,120.69873361924851L223.1569471153846,120.592107799277L223.58531250000001,120.66426877703084L223.6495673076923,120.60018031915446L223.69240384615384,120.68728472810437L223.97084134615383,120.66428849399924L224.1421875,120.72701542439954L224.27069711538462,120.84958675690164L224.31353365384615,120.96569690381985L224.65622596153847,121.0837429782726L224.67764423076923,121.09192118193192L224.69906250000003,120.91202080388709L225.34161057692307,121.03468220243987L225.72713942307692,121.13365693228768L225.91990384615383,121.02663973146412L226.11266826923077,121.07390917566116L226.32685096153847,121.18081505482442L226.4339423076923,121.05103590790411L226.90514423076925,120.96449684194175L227.0764903846154,120.90303319903579L227.20499999999998,120.94966235199415L227.48343749999998,120.94531741568323L228.19024038461538,121.05125058897612L228.51151442307693,121.17377264769914L228.57576923076925,121.27539587617288L228.5971875,121.2856680746433L228.6614423076923,121.17996025383626L228.85420673076925,121.29606970314141L228.9398798076923,121.40293200757452L229.0255528846154,121.49971649359372L229.28257211538462,121.61547814007521L229.3039903846154,121.6468421420168L229.45391826923077,121.64120398454267L229.9679567307692,121.6173763424624L230.01079326923076,121.63015246669244L230.3320673076923,121.7033574922423L230.35348557692308,121.82188266285777L230.54625,121.89709026205456L230.73901442307692,121.82629883994021L231.0817067307692,121.77758319535488L231.14596153846153,121.89763720531715L231.29588942307694,122.01858840139228L231.61716346153844,122.11043555659086L231.85276442307693,121.70537196858085L232.13120192307693,121.82274220463273L232.40963942307692,121.84772174414898L232.77374999999998,121.5551317161896L232.9236778846154,121.6600117154318L233.330625,121.3689224719862L233.35204326923076,121.29692162329084L233.50197115384617,121.27886691353332L233.56622596153844,121.371435779977L233.63048076923076,121.44308464155392L233.8232451923077,121.32210895820123L233.84466346153846,121.4391137091058L234.25161057692307,121.55969223746658L234.42295673076922,121.52098685719326L234.5086298076923,121.64228579282738L234.53004807692307,121.6658581295639L234.55146634615386,121.78557114065003L234.67997596153845,121.77185791591275L234.76564903846153,121.78150373475601L235.04408653846153,121.8452647462916L235.17259615384617,121.54867839719951L235.34394230769232,121.62509693836154L235.47245192307693,121.74162198071666L236.97173076923076,121.85945853046773L237.55002403846154,121.87064235106001L238.21399038461539,121.98528938425068L238.29966346153844,122.07663075822126L238.32108173076924,122.19317878768076L238.57810096153844,122.30972376774925L239.19923076923078,122.27424574579004L239.67043269230768,122.35180300110483L239.7132692307692,122.33602115060005L240.07737980769232,122.37125816343244L240.22730769230768,122.36147195211801L240.27014423076923,122.36307655424639L240.4414903846154,122.47866459313633L241.38389423076922,122.50787317647095L241.51240384615386,122.55833792780994L241.61949519230768,122.58287782121566L241.9621875,122.69332640722442L242.1121153846154,122.64431387016703L242.81891826923078,122.61269872492655L242.94742788461537,122.6915933181719L243.0116826923077,122.80448681930613L243.03310096153845,122.79751396592167L243.67564903846156,122.85611265407648L244.08259615384614,122.92203022215782L244.27536057692308,123.0320848552968L244.51096153846154,123.10228261116264L245.1535096153846,123.19400476780545L245.28201923076924,123.0709715548167L245.3034375,123.15763328751912L245.34627403846156,123.24872099169399L245.4319471153846,123.20866548347254L246.3529326923077,123.26458199912273L246.71704326923077,123.1990242239001L247.20966346153847,123.30805712838949L247.42384615384614,123.41770649814083L247.5309375,123.3848945707049L247.63802884615387,123.29142380656631L247.8950480769231,123.18862646267478L248.06639423076922,123.18352475320444L248.38766826923077,123.23584173234133L248.7731971153846,123.34824914834813L248.8374519230769,123.30748051420674L248.90170673076923,123.40516311669155L249.18014423076923,123.46278843049787L249.39432692307693,123.4872155756835L249.43716346153846,123.46301656291713L249.8226923076923,123.18182006296631L250.76509615384614,123.28462646562079L250.97927884615385,123.34493296708314L251.12920673076923,123.45008230743827L251.23629807692305,123.53622700305559L251.57899038461537,123.59332899734929L251.72891826923077,123.69603681840402L251.75033653846154,123.7661656393435L251.96451923076924,123.8548942998798L252.00735576923077,123.57122564430249L252.13586538461539,123.66286846959021L252.6713221153846,123.77285140228702L252.9497596153846,123.86399639666135L253.20677884615384,123.95990609068583L253.6565625,124.05480319040575L254.36336538461538,124.15483707836978L254.83456730769228,124.13410297255197L254.92024038461537,124.21667764948302L255.07016826923078,124.14955469605576L255.37002403846157,124.2308354886134L256.33384615384614,124.2975627080629L256.5266105769231,124.37135475907483L256.8050480769231,124.46535409359838L257.51185096153847,124.4278035650396L257.53326923076924,124.53769899072822L257.64036057692306,124.52381927470287L257.79028846153847,124.5110954871717L257.81170673076923,124.24294061060188L258.19723557692305,124.27729081049563L258.4328365384615,124.26536400055436L259.05396634615386,124.36920175245042L259.1610576923077,124.29673611037352L259.5680048076923,124.39066689108725L259.6965144230769,124.27504772684416L259.7179326923077,124.27708571493797L259.8464423076923,124.25185858819775L259.88927884615384,124.26042100150843L260.44615384615383,124.32644802613872L260.6817548076923,124.33799309370352L260.81026442307694,124.43962222450163L261.15295673076923,124.4230095416402L261.40997596153846,124.49652000995937L261.4956490384615,124.56555891692419L261.58132211538464,124.6356435850842L261.7098317307692,124.61757418068024L261.83834134615387,124.54124403746823L261.85975961538463,124.58099928392255L261.8811778846154,124.63532927517176L262.1381971153846,124.72587713505841L262.52372596153845,124.77674642893345L263.12343749999997,124.80074220700732L263.3590384615385,124.90804321187338L263.83024038461537,124.91070528838257L264.10867788461536,124.953919622121L264.1300961538462,124.99276465428112L264.3014423076923,125.06433074881194L264.55846153846153,125.11260436008024L264.8368990384615,125.11931921692606L265.47944711538463,125.17671470881488L265.6936298076923,125.15172991106442L265.7578846153846,125.22747823978654L265.80072115384615,125.29731446637864L266.07915865384615,125.33487992819049L266.3147596153846,125.44116171639041L266.5289423076923,125.34434412409381L266.63603365384614,125.28116702484152L266.65745192307696,125.34652967952934" style="fill: none;" fill="none"></path></g></g></g></g><g opacity="0.2"><g><g><g><path stroke="rgb(255, 112, 67)" stroke-width="2px" d="M21.825216346153848,75.13100381060079L22.446346153846154,186.3698848714544L22.767620192307692,102.54750815440308L22.78903846153846,-68.50269201668823L22.960384615384616,163.37098424881697L23.08889423076923,185.4368672897531L23.195985576923075,94.93493588268757L23.345913461538462,181.64156651429155L23.64576923076923,83.04770444739948L23.73144230769231,6.636735507033072L24.181225961538463,128.96795853430575L24.2240625,164.26049198074773L24.802355769230772,169.42540666901252L24.866610576923076,-0.5411278984763441L24.909447115384616,182.12512093392962L24.952283653846152,21.124589356509116L25.123629807692307,125.57371670007706L25.530576923076925,90.72170662067153L25.787596153846152,157.95118312402204L26.344471153846154,180.34356612170285L26.665745192307693,66.72688016295433L26.68716346153846,141.9666467891498L26.987019230769228,70.64370775222778L27.244038461538462,68.27845273505558L27.30829326923077,148.37190989540383L27.47963942307692,102.62464320253244L27.54389423076923,147.05768884379756L27.758076923076924,146.38527778874743L28.20786057692308,126.57227629423141L28.272115384615383,175.64622421799734L28.850408653846152,86.0502767102285L29.107427884615383,81.93269898403774L29.27877403846154,6.241793031042263L29.53579326923077,176.185932778838L29.707139423076924,-6.462459691546184L29.7928125,127.13938793810932L30.04983173076923,190.88748714217746L30.328269230769234,112.30276594243266L30.778052884615388,-64.20159186016427L30.799471153846152,123.71180563623255L30.842307692307692,7.99134635925293L30.992235576923076,112.02142802287231L31.313509615384614,137.6265295337547L31.399182692307694,153.2548167976466L31.61336538461538,-81.19010066986084L31.72045673076923,-194.26161723245275L31.741875,104.43113068423487L31.870384615384616,9.647927617484862L32.363004807692306,159.63937248831445L32.40584134615384,148.3219261684201L32.427259615384614,177.55741917071015L32.51293269230769,126.07813363860956L32.855624999999996,181.4892161024565L32.96271634615385,172.00412130288103L33.00555288461538,-94.54249639944594L33.262572115384614,97.53550434789874L33.348245192307694,184.45818714424968L33.47675480769231,-61.496829937804804L34.07646634615384,79.0619900091128L34.16213942307692,184.10222804901952L34.20497596153846,175.10060524703428L34.911778846153844,175.24185715548018L35.083125,153.88031022589314L35.21163461538462,3.7220641103657757L35.23305288461539,169.75730676847425L35.53290865384615,109.94290582293814L35.72567307692308,5.150465174154794L35.89701923076923,49.904126587239176L36.88225961538462,18.816028719598584L36.96793269230769,153.87395323812962L37.37487980769231,-195.42410978403956L37.8032451923077,34.66236575896089L38.03884615384615,102.24077225544237L38.06026442307692,-70.79983944784509L38.18877403846154,75.00580621849407L38.317283653846154,175.700784616511L38.65997596153846,158.6015859937126L38.98125,14.103405768221066L39.2596875,177.12470491806215L39.79514423076923,157.78593740815467L39.987908653846155,182.76846547915855L40.41627403846154,117.16180641678247L40.737548076923076,-30.225125719200463L41.35867788461538,92.93927931108259L41.61569711538461,165.43086707727477L41.765625,123.6972154351798L42.83653846153847,148.4749973985282L42.90079326923077,138.4268985702233L42.943629807692304,-30.66309550133617L43.17923076923077,-166.550017980012L43.32915865384616,141.2457505898042L43.41483173076923,-89.54310466484587L43.45766826923077,96.08355155858128L43.650432692307696,-13.152600369670171L44.05737980769231,154.36348325623706L44.35723557692308,174.54139712825418L44.378653846153846,187.2492078607902L44.50716346153847,130.29226205023855L44.956947115384615,134.76474012299016L45.042620192307695,47.499392907727845L45.08545673076923,135.81379595940763L45.19254807692308,162.67539311674508L45.23538461538462,72.8633484867486L45.535240384615385,82.80892627618529L45.685168269230765,132.22226271710613L45.98502403846154,112.83895882828668L46.09211538461539,129.37584277039224L46.113533653846154,140.94955871863797L46.370552884615385,185.8295948605307L46.58473557692307,29.56524245576424L46.627572115384616,158.8360422524539L46.79891826923077,112.91838970509443L46.9916826923077,16.46288225054741L47.01310096153846,98.96433100917123L47.527139423076925,169.68722854622385L47.67706730769231,134.33039091662928L48.12685096153846,156.6316331123764L48.23394230769231,84.1193589107557L48.255360576923074,109.3341515633193L48.29819711538462,-0.9384681067683516L48.362451923076925,91.51874880357221L48.448125,186.17219558967784L48.57663461538462,140.19997365230864L48.66230769230769,186.89577462668106L48.76939903846154,118.82098322023045L49.24060096153846,164.85154198448765L49.81889423076923,-7.418879140507112L50.654206730769225,-60.03699460354717L50.88980769230769,141.9049351540479L50.91122596153846,-10.63829032399438L51.789375,119.17606339671396L52.23915865384616,-111.55905867706643L52.26057692307692,64.54954741488804L52.64610576923077,145.77682624283165L52.667524038461536,177.92090190032667L53.05305288461539,-14.84338527917862L53.43858173076923,149.4346807605841L53.60992788461539,170.52831107716668L53.78127403846154,185.63146724331787L53.84552884615385,161.78154848651454L54.59516826923077,178.9245866472748L54.659423076923076,168.59051028740677L54.95927884615384,135.2576299634847L55.02353365384615,148.8485461080616L55.130625,121.94470090757719L55.38764423076923,124.41404747827485L55.6232451923077,92.11938074502079L55.730336538461536,93.93977507407016L55.77317307692307,185.06953095475382L56.28721153846154,114.57535460049456L56.458557692307686,104.14120888303628L57.20819711538462,163.4580638916655L57.40096153846154,113.41289202056147L57.52947115384615,130.91047536378557L57.893581730769235,174.18143756653774L57.93641826923077,178.44483188404277L58.00067307692308,125.16526899689978L58.08634615384616,12.653149374506674L59.457115384615385,121.45589320632546L59.49995192307692,96.01345984908669L59.75697115384616,49.12548699975014L59.82122596153847,138.39141213216564L59.99257211538461,118.79385287924245L60.99923076923077,98.40342349762267L61.08490384615384,190.4161900049922L61.27766826923077,84.79182691194795L61.42759615384615,54.714493095874786L61.87737980769231,81.14829285036434L62.112980769230774,116.5276242061095L62.17723557692308,-56.56738005443052L62.3057451923077,16.22977471622553L62.32716346153846,106.19325412403455L62.6484375,153.9470151385123L62.90545673076923,41.0664809508757L62.99112980769231,180.90562978979537L63.098221153846154,185.34590706703335L63.1410576923077,79.55396871133286L63.41949519230769,138.07988676293328L63.44091346153846,156.19231760298663L63.54800480769231,103.77834806523539L63.82644230769231,189.3973186210814L65.77550480769231,129.01901824365964L65.96826923076924,148.369260401211L66.18245192307693,-42.997366141189204L66.41805288461538,167.1685905937444L66.71790865384615,171.3833304271102L66.73932692307693,190.8017614687878L66.825,77.76222728328273L66.84641826923077,173.8851722648198L66.99634615384616,90.94920346140862L67.25336538461538,70.65223169055851L67.89591346153847,111.32841145585886L68.4313701923077,105.30039256404748L68.75264423076922,143.53930741684005L68.88115384615385,151.0454863120209L69.39519230769231,99.4870186678388L69.50228365384616,-62.347209675745525L71.04439903846155,173.74071189083836L71.10865384615384,177.53498688644984L71.60127403846154,152.85257922112942L71.96538461538462,176.86277364431456L72.71502403846155,184.46533763154665L73.61459134615384,141.10533339191568L73.7216826923077,-156.13762568885628L74.00012019230769,157.67407720197332L74.17146634615385,104.80626789141785L74.23572115384616,112.83073460649362L74.66408653846153,162.6067790097811L74.94252403846153,139.6702846153216L75.0496153846154,143.22945146872237L75.34947115384615,183.71313828771764L75.3923076923077,176.57862887937915L75.58507211538462,152.02389296618375L75.62790865384615,25.464952379465103L76.39896634615386,181.43547917513007L76.63456730769231,186.07566888156265L76.65598557692307,149.18708492883226L76.87016826923076,93.0179848738692L77.10576923076924,180.6391113544391L77.25569711538462,60.30554925311696L77.53413461538462,10.152985949407926L77.70548076923076,160.79423725401813L77.87682692307692,125.21229452165691L78.04817307692308,186.78594687327066L78.62646634615385,-109.20918511260638L78.71213942307692,91.17421864921397L78.86206730769231,110.13286017016932L78.92632211538462,158.30330509827897L78.96915865384615,66.66416747461666L79.03341346153846,155.07756390151653L79.11908653846153,187.0469984789802L79.31185096153847,143.13765728473663L79.44036057692308,-84.72222410006955L79.54745192307692,117.00554620271379L79.63312499999999,93.58120020275766L79.89014423076924,107.28564897179604L79.91156249999999,140.5779281949455L79.99723557692307,157.73750321567059L80.10432692307693,180.06410892341623L80.12574519230769,141.19619545746934L80.4041826923077,168.09141331741756L80.42560096153846,189.10722260964528L80.44701923076924,157.34995774382895L80.55411057692308,178.577631786127L80.66120192307692,190.3352925777012L80.72545673076924,163.4063537974249L80.93963942307693,191.80078028487466L81.0895673076923,121.70563500848684L81.66786057692308,187.59708659816533L82.1390625,166.48370833356273L82.3532451923077,55.86307880011471L82.71735576923076,102.67392259565267L82.73877403846154,98.57547277889468L84.00245192307693,48.3380237573927L84.28088942307693,148.76477233862335L84.66641826923077,141.27172402495688L84.73067307692308,115.04414723136209L84.88060096153845,-23.919473404234118L84.94485576923077,148.26481518217108L85.11620192307693,169.83035817877814L85.60882211538461,-52.95968010208823L86.10144230769231,171.31398800895974L86.42271634615385,132.37311005050486L86.70115384615384,181.5044461983171L87.47221153846155,140.3105211000551L87.49362980769232,150.71768633479422L87.90057692307693,185.7654637636786L87.92199519230769,149.40722073140472L87.94341346153846,42.90176519751549L88.15759615384616,126.56231971085072L88.24326923076923,93.27462615072727L88.26468750000001,119.97645041617481L88.28610576923077,139.77145093543962L88.43603365384615,137.53490019386464L88.80014423076923,161.42424741048706L89.39985576923077,57.74722883105278L89.8068028846154,96.30992146513678L89.95673076923077,124.56044102392413L90.06382211538461,13.849437962878833L90.34225961538462,146.84546555781907L90.40651442307691,92.38284357027575L90.59927884615385,165.6863124851476L90.85629807692307,129.56643251668325L91.37033653846153,163.97293794019654L91.43459134615385,182.94267197021028L92.24848557692307,26.11994091218167L92.97670673076924,121.54158216443929L93.31939903846154,125.23527079143308L93.70492788461539,49.692274949767366L93.91911057692307,190.40687818681315L93.94052884615385,75.50810715827075L94.11187500000001,167.12934571030465L94.34747596153846,122.8121105391871L94.64733173076924,191.73687247684308L94.81867788461538,174.9525287930261L94.99002403846154,85.64610296487808L95.56831730769231,45.80974692106247L96.03951923076923,183.8064677696675L96.0609375,119.36070676689798L96.08235576923076,147.98391185159034L96.21086538461537,178.6393554098904L96.25370192307692,177.10197441584685L96.40362980769231,156.03890469602564L96.9605048076923,90.9751469249075L97.34603365384615,175.1919303746386L97.81723557692308,191.80905817466027L97.88149038461538,98.2430571669882L98.03141826923077,130.25525904650038L98.2884375,146.98418935726988L98.54545673076922,191.4884444633922L98.82389423076923,176.7091749131002L98.84531249999999,156.79980406165123L98.88814903846153,78.52480206435378L99.18800480769231,162.07563335042107L99.70204326923077,4.450243421576224L99.76629807692308,190.81787348056042L99.80913461538461,187.55154467026958L99.85197115384615,131.89353361861274L99.91622596153847,178.21726610850206L100.00189903846154,159.38537471131846L100.06615384615384,152.64441709423608L100.47310096153846,136.85939306698063L100.68728365384615,187.771657619456L100.94430288461538,168.0522193857892L101.05139423076922,191.5149259180762L101.65110576923077,167.87119808996266L101.67252403846155,179.46918508342722L101.82245192307693,191.09120072636077L101.8438701923077,41.29840160770849L101.99379807692308,-33.26777607744389L102.44358173076922,188.02308570178732L102.465,105.94492698393084L102.55067307692308,180.45108493383637L102.61492788461538,169.05152077837423L103.10754807692307,158.67180658131838L103.8571875,154.20693831145763L103.90002403846154,72.7947493656115L104.11420673076923,138.12440066310495L104.30697115384616,128.9013435366479L105.01377403846155,153.490714692934L105.20653846153846,152.34586345675316L105.29221153846154,108.74601780149071L105.42072115384616,150.17874504828995L105.67774038461539,141.16508488086137L105.74199519230768,129.97494016316804L106.10610576923078,182.98389872925526L106.38454326923078,167.891039324755L106.57730769230768,162.43299736692146L106.7058173076923,126.85349432717672L107.36978365384616,147.60568156973883L107.41262019230768,136.6118092238903L107.60538461538462,167.80615960129282L107.84098557692307,-2.283092403953736L107.96949519230769,61.1818005225875L108.11942307692307,173.6584936502305L108.91189903846153,187.82784772664309L109.57586538461538,-9.600240078839414L109.704375,135.91905041309923L109.7686298076923,188.04983989852056L111.22507211538462,-85.14762976494701L111.54634615384614,69.58197990059853L111.84620192307692,145.60822070457718L111.97471153846153,160.62231385369194L112.38165865384615,-97.63703368468717L112.44591346153847,-7.9116730717095605L112.51016826923076,108.87228238447145L112.61725961538463,79.40492567149076L113.13129807692307,53.52182508327743L113.92377403846153,165.3524582338604L114.03086538461538,161.57484597915953L114.13795673076923,30.7961662872271L114.26646634615385,61.16802555051716L115.16603365384616,-43.76425684040242L115.23028846153846,150.29847880791533L115.57298076923077,90.73755563118242L116.15127403846154,98.8455833169547L116.42971153846153,157.78982473164797L116.60105769230769,-45.03889133171599L116.83665865384616,140.631739302115L117.09367788461539,65.50221441279758L117.58629807692309,170.7214843800122L117.7148076923077,89.25466610084882L118.35735576923076,145.2563744695349L118.57153846153845,135.1654791168191L118.65721153846154,153.1806099800901L119.19266826923077,191.78070957960816L119.27834134615384,166.500858113847L119.40685096153845,93.40906700085512L120.09223557692307,103.22489750114354L120.15649038461538,107.67873320525342L120.2207451923077,188.31370996362105L121.01322115384616,-123.04930356957696L121.1203125,149.7384614544836L121.20598557692307,118.70474115826867L121.22740384615385,173.05444044450468L121.39874999999999,119.34679991955107L121.63435096153846,155.1963055994023L121.80569711538462,173.35725754973564L121.89137019230769,174.67920978943056L121.93420673076923,144.0496017966758L122.06271634615385,116.05986859446222L122.23406250000001,61.977955544536755L122.25548076923077,-444.12203521078277L122.44824519230768,158.7920348732309L122.74810096153846,53.62369274009358L122.89802884615385,145.78856014528057L123.36923076923077,126.76881241662934L123.51915865384616,132.0453939939087L123.64766826923078,126.47296222231604L123.73334134615385,160.25591338358143L123.75475961538461,175.70871511609718L124.33305288461538,176.15485816821456L124.39730769230769,175.28108405592766L124.4615625,138.20466475188732L124.54723557692307,97.79045522348449L124.88992788461539,168.99111440879378L124.93276442307692,156.31689478186044L124.97560096153846,36.98223170367153L124.99701923076923,145.21140500022605L125.0184375,-90.77390860969368L125.18978365384616,143.85424356027082L126.00367788461539,129.09842514314434L126.2821153846154,189.55590088902548L126.60338942307692,147.95777956667274L127.01033653846153,108.06150119548494L127.09600961538462,129.77121084386653L127.24593750000001,22.020537996833966L127.33161057692307,104.0110060247508L127.43870192307692,160.5232994983142L128.10266826923078,155.83400048789653L128.33826923076924,190.36959981850603L129.02365384615385,112.71620692312717L129.5376923076923,87.37088771841742L129.94463942307692,-150.37983122738922L130.22307692307692,143.24746143546972L130.24449519230768,191.06885423595935L130.41584134615385,144.1506212556904L130.45867788461538,122.83596198125318L130.56576923076923,82.72672002423893L131.3582451923077,27.639455803415977L131.44391826923078,122.96445645527407L131.52959134615386,-66.88431862267578L131.7651923076923,37.87029180472546L131.78661057692307,95.91066906533457L131.82944711538462,143.0670230883089L131.8508653846154,-450.0000279925086L132.53625,126.09943749010563L132.77185096153846,154.26036278429356L132.8146875,176.43749386038292L132.92177884615384,18.317947788672008L132.96461538461537,53.12854903123595L133.07170673076925,170.17364001375708L133.20021634615387,129.2769842676141L133.35014423076922,59.34801485863598L133.6285817307692,153.46752862158147L133.94985576923077,187.1388904454864L134.1426201923077,180.6201370497319L134.206875,176.81816833059895L134.84942307692307,106.57289906794375L135.34204326923077,174.24555292827162L135.36346153846154,149.3522227467461L135.42771634615383,99.81076647747646L135.4705528846154,142.99485734037378L135.55622596153847,153.45358880541542L135.6847355769231,131.6032042029229L136.2844471153846,48.390582049434826L136.45579326923078,110.80792371657762L136.94841346153845,183.23879490657285L137.1411778846154,137.16458242860708L137.16259615384615,104.81232815980911L137.46245192307694,-6.925521742213874L137.61237980769232,117.82769863713871L138.06216346153846,151.79862601648676L138.2549278846154,122.89013874259862L138.3191826923077,46.58827861059796L138.36201923076922,76.3980135131966L139.32584134615385,98.48807543651625L139.43293269230767,0.7005257850343442L139.45435096153847,163.08673608167604L139.6899519230769,158.82640936293384L140.20399038461537,50.204946081746705L140.67519230769233,77.99686936627735L141.46766826923078,160.13603875718334L142.51716346153847,184.42774793268606L142.81701923076923,156.3176111043854L144.01644230769233,177.16124186258426L144.38055288461538,189.50433952911675L144.63757211538461,172.0858809771863L144.7018269230769,190.7596310643818L144.74466346153847,183.84578008932823L144.76608173076923,159.25406889617443L145.25870192307693,169.10745537721297L145.4300480769231,174.04113875668156L146.35103365384614,192.00490991307677L147.0792548076923,191.18898287212306L147.35769230769233,64.89601973241025L147.37911057692307,182.44861248592764L148.94264423076925,179.5008486370471L149.00689903846154,143.16584262793714L149.17824519230768,175.10091545365074L149.54235576923077,93.12906581705266L149.7351201923077,114.70395097813822L149.88504807692306,143.9408976056359L150.0135576923077,76.81188608570534L150.1420673076923,121.81290955164216L150.913125,167.13395834781906L151.08447115384615,142.62231268124148L151.57709134615385,171.26192424920472L151.61992788461538,104.13495080173016L151.64134615384614,110.81979848579928L152.32673076923078,145.59888153726405L152.3695673076923,85.48472359234637L152.7979326923077,162.19346690719777L152.90502403846153,188.8232074721124L152.94786057692306,96.77496164495295L152.99069711538462,160.83449517935514L153.5475721153846,150.30689484829253L154.34004807692307,104.91784636405382L154.4685576923077,65.76475411111657L154.68274038461539,163.69124036079103L154.76841346153847,42.059621670029365L154.85408653846153,137.77297702838075L155.1539423076923,126.73604740473358L155.32528846153846,190.14822843450716L155.925,157.5670034688982L155.96783653846154,162.39387536726215L156.11776442307692,147.9523996548219L156.28911057692306,111.49962153082544L156.31052884615383,162.0189749361439L156.37478365384615,167.8436061855067L156.67463942307694,149.52878575907513L156.9744951923077,177.54917396875948L157.06016826923076,20.319790509614062L157.1030048076923,184.74587530795148L157.3814423076923,132.25343323702162L157.61704326923075,151.0241854576902L157.63846153846154,1.22598881884054L157.7455528846154,81.8620138357986L157.78838942307692,154.77758960764515L157.85264423076924,176.25246235728264L158.6451201923077,126.64454994012009L159.03064903846152,168.49247450652447L159.43759615384616,165.43696630881593L159.56610576923075,175.41828829253262L159.78028846153848,191.27289544778282L160.0801442307692,177.97447623143142L160.46567307692308,146.24992580034515L160.52992788461538,134.34668350761586L161.25814903846154,189.3669655780223L161.32240384615383,-27.022043092684306L161.51516826923077,114.95305738123982L161.64367788461539,189.19377550067887L161.7507692307692,180.0222145457837L162.0292067307692,155.56683016907084L162.13629807692308,93.35707217590377L162.4789903846154,35.358823071826585L162.58608173076922,61.87168804894794L162.69317307692307,173.74848054349422L162.77884615384616,150.9596564871344L163.12153846153845,9.349577787247565L163.4213942307692,20.85232685370878L163.8497596153846,57.665933717380874L164.10677884615384,131.15367135676473L164.36379807692308,105.13632173700765L165.1134375,20.795476620847516L165.26336538461538,162.35490322587165L165.37045673076923,120.17477284913713L165.41329326923076,141.01801997016776L165.45612980769232,159.57404027743772L165.58463942307694,188.95475793088025L165.6703125,161.30799335986376L166.0130048076923,127.75692389228128L166.24860576923078,176.313186426393L166.5698798076923,176.92065340348265L166.7626442307692,135.15304687483743L167.12675480769232,180.65946735238487L167.5337019230769,137.911751779643L167.87639423076922,181.76407415047288L167.98348557692307,135.1685062538494L168.02632211538463,148.68648937615484L168.15483173076922,108.30568625303833L168.34759615384615,97.98383832790635L168.69028846153844,133.2416526106271L169.52560096153846,185.7198116899553L169.5684375,149.06216307594016L169.6326923076923,136.7215354483236L169.86829326923078,141.53486915068194L170.01822115384613,77.58128241517328L170.8321153846154,190.45603937922382L171.1748076923077,96.74348541416906L171.28189903846155,158.8056869615208L171.32473557692308,102.55415586720815L171.3889903846154,138.63984117589214L171.75310096153845,190.53000042921946L171.96728365384615,92.46482203765348L171.98870192307692,169.26881676675245L172.30997596153844,186.737378557636L172.52415865384614,127.41725514016368L173.23096153846154,158.63580463081598L173.72358173076924,189.7127991246737L173.87350961538462,165.76700217141345L173.9377644230769,106.93236709453844L174.06627403846156,151.68048974600705L174.88016826923078,160.58213984898546L175.15860576923077,117.39818086136471L175.18002403846154,171.5721068883484L175.2228605769231,171.14184731414372L175.35137019230768,147.92546712674877L175.415625,168.7492476586591L175.80115384615385,145.95451319217682L176.1866826923077,43.181748398325645L176.70072115384613,78.40368061715907L176.78639423076922,73.87865624102679L177.04341346153845,161.00709593905643L177.2361778846154,158.76146978072146L177.8358894230769,94.08631248365751L177.96439903846155,191.82509432068431L178.52127403846154,190.8509749242697L178.6069471153846,143.45563854818994L178.64978365384616,58.93408234281973L178.92822115384615,94.45033020729369L179.0353125,87.30316376957026L179.2280769230769,149.4266843233596L179.44225961538461,178.47868486697024L180.29899038461537,181.00736706991762L180.44891826923077,89.33905428918926L180.68451923076924,185.88681149685925L180.7059375,1.627489092675117L181.30564903846155,166.53382093865764L181.3913221153846,172.9330852184106L181.43415865384614,99.59610349888152L181.69117788461537,184.30440633523872L182.20521634615383,145.09785738993776L182.46223557692306,192.27411034313792L182.63358173076924,146.66339675269344L182.76209134615382,145.52239087969065L182.99769230769232,-118.75043330409311L183.16903846153846,166.73958533324978L183.21187500000002,129.24420726705682L183.3403846153846,125.56499494883148L183.46889423076922,191.93201941308902L184.06860576923077,-125.0352013707161L184.21853365384615,115.29957765340805L184.26137019230768,179.6845958547836L184.30420673076924,50.0987145521424L184.36846153846156,150.67812375182456L185.03242788461537,183.64104222387752L185.16093750000002,191.35984452661464L185.46079326923078,111.44253751906483L185.5036298076923,125.03029465133494L185.52504807692307,113.77699965915896L186.81014423076925,191.5658386726652L186.93865384615384,190.36311058082023L187.00290865384616,120.15885790098797L187.55978365384615,-5.374248886650269L187.58120192307692,135.92781412466005L187.64545673076924,73.95597111907871L187.666875,123.63066038082948L188.37367788461538,135.95936828174374L188.39509615384617,180.2273345498199L188.95197115384616,190.9669446188279L189.31608173076924,101.9809539832852L189.4017548076923,167.84657637639478L189.57310096153847,-56.24783427065068L189.6801923076923,156.7180653675036L189.70161057692306,154.8510801026767L189.8301201923077,122.00309168344194L190.25848557692308,171.7685710787773L190.53692307692307,137.2490485432473L190.6654326923077,172.13414882699198L191.008125,190.5643108545125L191.20088942307692,116.16107088056478L191.24372596153847,179.65662181174213L191.26514423076924,92.3543824878606L192.48598557692307,-6.74124402620576L193.34271634615385,140.61424185064706L193.40697115384617,67.45455595038153L193.42838942307694,-41.538322058590964L193.47122596153847,156.67559853128412L193.77108173076925,-52.99344017288901L193.9424278846154,187.79835636862978L194.43504807692307,174.0625894692811L194.45646634615383,147.7535647065802L194.8419951923077,187.5306375685402L195.3988701923077,186.76660316793078L195.82723557692307,161.2916707972234L195.87007211538463,145.77988335151565L196.2770192307692,131.40332923829556L196.29843749999998,27.827402049844906L196.74822115384617,107.6686147749424L196.89814903846153,183.09358823841268L197.0694951923077,111.49641456387259L197.09091346153843,130.34651074355298L197.4121875,185.37601733969694L197.69062499999998,162.95593978464603L197.71204326923078,114.49242902885786L198.2475,99.38560058582912L198.71870192307694,50.092708232727915L198.84721153846152,28.97409354556691L198.91146634615384,154.31588527289304L198.9328846153846,172.9811207878996L199.0185576923077,-49.701161904768504L199.12564903846155,188.1717574677684L199.2327403846154,166.55079688335007L200.26081730769232,-116.34299018708141L200.32507211538461,123.66920992190188L200.56067307692308,173.51284490017727L200.7534375,171.05564284358513L200.86052884615384,156.6159489459612L201.28889423076922,180.2208292023702L201.58875,39.67445348609578L201.69584134615386,21.191138416528702L202.5739903846154,162.55237746103242L202.65966346153846,190.31769640709868L203.30221153846153,132.88258620419285L203.58064903846153,158.1498502310027L203.9447596153846,115.42998431893913L204.13752403846155,94.92739501460031L204.33028846153846,139.3611270067367L204.5230528846154,184.9427576029504L204.65156249999998,129.46925842084667L204.67298076923078,30.246857805685558L204.84432692307692,175.94400308823043L205.65822115384614,173.9960688823326L205.7653125,137.6823667247187L206.02233173076922,78.64636709202419L206.06516826923078,141.83782862126827L206.08658653846155,179.35637927156955L206.21509615384613,80.43283350901172L206.90048076923077,106.2285727208311L206.98615384615385,181.55684788846835L207.6501201923077,176.41380126808178L207.7786298076923,189.19838514102793L208.0570673076923,29.28418027541854L208.16415865384613,128.55213180997154L208.29266826923077,95.36365641247144L208.72103365384615,180.60319557244128L208.89237980769232,139.19124167886648L208.93521634615385,182.91798656687817L209.66343750000001,192.5927157662809L209.89903846153845,117.83790098808028L209.98471153846154,171.62038822539827L210.3488221153846,102.1688282977451L210.41307692307691,170.98724902827632L210.6272596153846,45.43984875895759L211.31264423076922,53.42367391152815L211.4197355769231,179.87686401368543L211.56966346153845,154.20608411932534L211.80526442307692,130.40272557735443L211.93377403846154,113.85890619456768L212.08370192307692,51.23406477407974L212.42639423076923,155.97666256265208L212.51206730769232,84.62910480932757L212.91901442307693,186.56842010315845L213.47588942307692,176.69769576970828L213.5615625,121.55461983382702L213.75432692307692,184.70940430106765L213.88283653846156,191.51470749964938L213.90425480769233,42.43505859375L213.98992788461538,35.56296599995006L214.3326201923077,82.94691577011889L214.91091346153846,190.28352647393265L215.25360576923077,143.60646490143105L215.44637019230768,189.2016119642014L215.59629807692306,174.19800140099093L215.7033894230769,177.38420998643747L216.71004807692307,165.14411927420986L216.79572115384616,144.450565577908L217.4596875,16.231704890727997L217.63103365384615,169.32994245602325L217.6524519230769,170.5680849602954L217.69528846153847,161.85322869365865L217.71670673076923,186.26617770438844L218.20932692307693,117.13077376647428L218.27358173076922,87.80552465265448L218.33783653846154,110.14214538850568L218.48776442307692,181.55702621980825L218.55201923076925,156.2540472210808L218.65911057692307,38.945135252042235L218.74478365384616,43.046648171814994L218.93754807692306,142.70168361474168L218.95896634615383,163.5600154691122L219.04463942307692,30.996892446821377L219.21598557692306,85.49026235396212L219.60151442307694,192.61885549728123L219.6229326923077,76.89256977764043L220.43682692307692,-20.59278767759151L220.69384615384615,149.62903794375333L220.7366826923077,191.9024401070042L220.88661057692306,162.47257493571803L221.1007932692308,63.26101806488903L221.12221153846153,96.17410191893578L221.20788461538461,153.7409000755711L221.25072115384614,189.28943190689793L221.33639423076923,138.6555762941187L221.40064903846152,127.00712902437559L221.59341346153846,177.80300240591168L221.74334134615384,145.03744352744386L221.89326923076925,134.88971592485905L222.02177884615384,135.0601047765125L222.0431971153846,176.2262041914192L222.17170673076924,84.39374340664257L222.27879807692307,182.20355150679296L222.4929807692308,134.07927641272545L222.70716346153847,187.43982720408926L222.83567307692306,179.99449825896457L223.1569471153846,60.87435129826718L223.58531250000001,161.111028642817L223.6495673076923,84.65002502365547L223.69240384615384,169.58629900217056L223.97084134615383,107.74450899660587L224.1421875,155.99577848342332L224.27069711538462,189.8199181898751L224.65622596153847,187.6106888585809L224.67764423076923,125.70445305379955L224.69906250000003,19.36940135739066L225.34161057692307,190.32274738004938L225.72713942307692,177.08473921634933L225.91990384615383,60.48268172686749L226.11266826923077,147.83662515065888L226.32685096153847,181.75438356551936L226.4339423076923,47.46120902083136L226.90514423076925,71.85609711300243L227.0764903846154,85.99768245220184L227.20499999999998,147.45057226717472L227.48343749999998,118.47407331656328L228.19024038461538,181.34782033007255L228.57576923076925,179.20608191801742L228.5971875,127.14577789469197L228.6614423076923,60.83019705794074L228.85420673076925,187.63394274080002L228.9398798076923,182.5032500614497L229.0255528846154,176.87922208790076L229.28257211538462,187.90300951601768L229.3039903846154,139.61989627101204L229.45391826923077,118.40787192772737L229.9679567307692,107.94272353161465L230.01079326923076,128.96778469871393L230.3320673076923,163.77783446284857L230.35348557692308,189.99432848817244L230.54625,165.18632535704157L230.73901442307692,81.049026733095L231.0817067307692,93.69579382376239L231.14596153846153,191.15265329398045L231.29588942307694,191.84221787577158L231.61716346153844,175.17139529606158L231.85276442307693,-112.47429707375439L232.13120192307693,189.72746875060892L232.40963942307692,136.31017450040036L232.77374999999998,-47.969183954325565L233.330625,-47.53001530603926L233.35204326923076,79.48966153101489L233.50197115384617,110.78785469721666L233.56622596153844,175.19891976429656L233.63048076923076,163.1357966817238L233.8232451923077,50.875495897098006L233.84466346153846,189.6221251312474L234.25161057692307,191.875468803104L234.42295673076922,98.93371796201578L234.5086298076923,192.47900335872757L234.53004807692307,135.44152404232457L234.55146634615386,191.7954488896384L234.67997596153845,113.7464885156263L234.76564903846153,127.43050261112778L235.04408653846153,159.21276196295565L235.17259615384617,-52.389882998032974L235.34394230769232,166.47369180687448L235.47245192307693,190.17598518305883L236.97173076923076,191.11257519856602L237.55002403846154,128.44802826778457L238.21399038461539,189.4581719429486L238.29966346153844,175.87099513682452L238.32108173076924,190.88048089346424L238.57810096153844,191.04297165238216L239.19923076923078,101.33630567111753L239.67043269230768,168.15520498529077L239.7132692307692,113.00920381600207L240.07737980769232,143.2101377350363L240.22730769230768,116.5699981302023L240.27014423076923,123.31333249942824L240.4414903846154,190.97768271308055L241.38389423076922,139.8291403746063L241.51240384615386,152.50542055273598L241.61949519230768,137.15543507987803L241.9621875,188.32590617882937L242.1121153846154,93.49943753128701L242.81891826923078,103.80024535547605L242.94742788461537,169.66934446042234L243.0116826923077,190.0724310587499L243.03310096153845,118.63990647684446L243.67564903846156,157.81954762068662L244.08259615384614,162.27886214310473L244.27536057692308,188.78568745734677L244.51096153846154,165.0710513794964L245.1535096153846,178.06824854456565L245.28201923076924,49.41508510708809L245.3034375,175.07381958006457L245.34627403846156,177.85278981856325L245.4319471153846,99.18070836636154L246.3529326923077,156.8293441236019L246.71704326923077,83.82080527327277L247.20966346153847,188.8436683708463L247.42384615384614,189.36748558621517L247.5309375,103.63676796718076L247.63802884615387,66.99815959551115L247.8950480769231,61.237595753236235L248.06639423076922,120.10694699666716L248.38766826923077,154.80622752281752L248.7731971153846,191.22433331380174L248.8374519230769,98.67364193363622L248.90170673076923,182.46697911535472L249.18014423076923,158.32749821719798L249.39432692307693,138.2758534239097L249.43716346153846,108.80296993797475L249.8226923076923,-47.28089091994546L250.76509615384614,185.6467587810687L250.97927884615385,159.95038534226742L251.12920673076923,187.31591577057472L251.23629807692305,175.89271409572527L251.57899038461537,158.320763586597L251.72891826923077,186.19948103397408L251.75033653846154,166.4708504940976L251.96451923076924,177.9204912886701L254.36336538461538,185.38115972619167L254.83456730769228,111.43565003302965L254.92024038461537,174.82086032087153L255.07016826923078,82.98872023279017L255.37002403846157,174.10483301668003L256.33384615384614,165.2671858817339L256.5266105769231,169.70710125125268L256.8050480769231,182.2520381496711L257.51185096153847,101.3289506272836L257.53326923076924,192.18101641965436L257.64036057692306,115.97519267824563L257.79028846153847,116.66953998668626L257.81170673076923,-41.121116638183594L258.19723557692305,145.47328831932762L258.4328365384615,116.90129879658872L259.05396634615386,188.52219203791836L259.1610576923077,79.49842524257573L259.5680048076923,182.49451032721183L259.6965144230769,52.71118775822898L259.7179326923077,125.53929725289345L259.8464423076923,108.6180628172376L259.88927884615384,129.56998116048902L260.44615384615383,165.29488268697804L260.6817548076923,131.50584428283304L260.81026442307694,187.5753432872959L261.15295673076923,114.09632964703171L261.40997596153846,170.21941422196952L261.4956490384615,167.5332077504559L261.58132211538464,168.28053744983944L261.7098317307692,113.35813980346376L261.83834134615387,76.94959984042428L261.85975961538463,149.3832194310698L261.8811778846154,158.55071810294282L262.1381971153846,181.28413131511346L262.52372596153845,156.56990948861295L263.12343749999997,139.8070093054663L263.3590384615385,192.05108574144967L263.83024038461537,126.57747937332502L264.10867788461536,152.02730673754758L264.1300961538462,149.34329419108957L264.3014423076923,169.9531295655126L264.55846153846153,155.40947598963976L264.8368990384615,129.33610635183075L265.47944711538463,161.24115657196805L265.6936298076923,109.44327835467729L265.7578846153846,172.88004438274285L265.80072115384615,169.25646544823593L266.07915865384615,148.99473884363067L266.3147596153846,192.4198680214203L266.5289423076923,64.29426085678013L266.63603365384614,85.42042840068991L266.65745192307696,166.61027263308114" style="fill: none;" fill="none"></path></g></g></g></g></g></g><g transform="translate(51, 177)" clip-path="url(#clip_1)"><clipPath id="clip_1"><rect width="278" height="23"></rect></clipPath><g><g><line x1="0" y1="0" x2="0" y2="5" style="visibility: inherit;" fill="rgb(0, 0, 0)" stroke="rgb(204, 204, 204)" stroke-width="1px"></line><line x1="21.418269230769234" y1="0" x2="21.418269230769234" y2="5" style="visibility: inherit;" fill="rgb(0, 0, 0)" stroke="rgb(204, 204, 204)" stroke-width="1px"></line><line x1="42.83653846153847" y1="0" x2="42.83653846153847" y2="5" style="visibility: inherit;" fill="rgb(0, 0, 0)" stroke="rgb(204, 204, 204)" stroke-width="1px"></line><line x1="64.2548076923077" y1="0" x2="64.2548076923077" y2="5" style="visibility: inherit;" fill="rgb(0, 0, 0)" stroke="rgb(204, 204, 204)" stroke-width="1px"></line><line x1="85.67307692307693" y1="0" x2="85.67307692307693" y2="5" style="visibility: inherit;" fill="rgb(0, 0, 0)" stroke="rgb(204, 204, 204)" stroke-width="1px"></line><line x1="107.09134615384616" y1="0" x2="107.09134615384616" y2="5" style="visibility: inherit;" fill="rgb(0, 0, 0)" stroke="rgb(204, 204, 204)" stroke-width="1px"></line><line x1="128.5096153846154" y1="0" x2="128.5096153846154" y2="5" style="visibility: inherit;" fill="rgb(0, 0, 0)" stroke="rgb(204, 204, 204)" stroke-width="1px"></line><line x1="149.9278846153846" y1="0" x2="149.9278846153846" y2="5" style="visibility: inherit;" fill="rgb(0, 0, 0)" stroke="rgb(204, 204, 204)" stroke-width="1px"></line><line x1="171.34615384615387" y1="0" x2="171.34615384615387" y2="5" style="visibility: inherit;" fill="rgb(0, 0, 0)" stroke="rgb(204, 204, 204)" stroke-width="1px"></line><line x1="192.76442307692307" y1="0" x2="192.76442307692307" y2="5" style="visibility: inherit;" fill="rgb(0, 0, 0)" stroke="rgb(204, 204, 204)" stroke-width="1px"></line><line x1="214.18269230769232" y1="0" x2="214.18269230769232" y2="5" style="visibility: inherit;" fill="rgb(0, 0, 0)" stroke="rgb(204, 204, 204)" stroke-width="1px"></line><line x1="235.60096153846155" y1="0" x2="235.60096153846155" y2="5" style="visibility: inherit;" fill="rgb(0, 0, 0)" stroke="rgb(204, 204, 204)" stroke-width="1px"></line><line x1="257.0192307692308" y1="0" x2="257.0192307692308" y2="5" style="visibility: inherit;" fill="rgb(0, 0, 0)" stroke="rgb(204, 204, 204)" stroke-width="1px"></line><line x1="278.4375" y1="0" x2="278.4375" y2="5" style="visibility: inherit;" fill="rgb(0, 0, 0)" stroke="rgb(204, 204, 204)" stroke-width="1px"></line></g><g transform="translate(0, 8)"><text x="0" y="0" dx="0em" dy="0.95em" style="text-anchor: middle; visibility: hidden; font-family: Roboto, sans-serif; font-size: 12px; font-weight: 200;" fill="rgb(33, 33, 33)" stroke="none" stroke-width="1px">-1k</text><text x="21.418269230769234" y="0" dx="0em" dy="0.95em" style="text-anchor: middle; visibility: inherit; font-family: Roboto, sans-serif; font-size: 12px; font-weight: 200;" fill="rgb(33, 33, 33)" stroke="none" stroke-width="1px">0</text><text x="42.83653846153847" y="0" dx="0em" dy="0.95em" style="text-anchor: middle; visibility: hidden; font-family: Roboto, sans-serif; font-size: 12px; font-weight: 200;" fill="rgb(33, 33, 33)" stroke="none" stroke-width="1px">1k</text><text x="64.2548076923077" y="0" dx="0em" dy="0.95em" style="text-anchor: middle; visibility: inherit; font-family: Roboto, sans-serif; font-size: 12px; font-weight: 200;" fill="rgb(33, 33, 33)" stroke="none" stroke-width="1px">2k</text><text x="85.67307692307693" y="0" dx="0em" dy="0.95em" style="text-anchor: middle; visibility: hidden; font-family: Roboto, sans-serif; font-size: 12px; font-weight: 200;" fill="rgb(33, 33, 33)" stroke="none" stroke-width="1px">3k</text><text x="107.09134615384616" y="0" dx="0em" dy="0.95em" style="text-anchor: middle; visibility: inherit; font-family: Roboto, sans-serif; font-size: 12px; font-weight: 200;" fill="rgb(33, 33, 33)" stroke="none" stroke-width="1px">4k</text><text x="128.5096153846154" y="0" dx="0em" dy="0.95em" style="text-anchor: middle; visibility: hidden; font-family: Roboto, sans-serif; font-size: 12px; font-weight: 200;" fill="rgb(33, 33, 33)" stroke="none" stroke-width="1px">5k</text><text x="149.9278846153846" y="0" dx="0em" dy="0.95em" style="text-anchor: middle; visibility: inherit; font-family: Roboto, sans-serif; font-size: 12px; font-weight: 200;" fill="rgb(33, 33, 33)" stroke="none" stroke-width="1px">6k</text><text x="171.34615384615387" y="0" dx="0em" dy="0.95em" style="text-anchor: middle; visibility: hidden; font-family: Roboto, sans-serif; font-size: 12px; font-weight: 200;" fill="rgb(33, 33, 33)" stroke="none" stroke-width="1px">7k</text><text x="192.76442307692307" y="0" dx="0em" dy="0.95em" style="text-anchor: middle; visibility: inherit; font-family: Roboto, sans-serif; font-size: 12px; font-weight: 200;" fill="rgb(33, 33, 33)" stroke="none" stroke-width="1px">8k</text><text x="214.18269230769232" y="0" dx="0em" dy="0.95em" style="text-anchor: middle; visibility: hidden; font-family: Roboto, sans-serif; font-size: 12px; font-weight: 200;" fill="rgb(33, 33, 33)" stroke="none" stroke-width="1px">9k</text><text x="235.60096153846155" y="0" dx="0em" dy="0.95em" style="text-anchor: middle; visibility: inherit; font-family: Roboto, sans-serif; font-size: 12px; font-weight: 200;" fill="rgb(33, 33, 33)" stroke="none" stroke-width="1px">10k</text><text x="257.0192307692308" y="0" dx="0em" dy="0.95em" style="text-anchor: middle; visibility: hidden; font-family: Roboto, sans-serif; font-size: 12px; font-weight: 200;" fill="rgb(33, 33, 33)" stroke="none" stroke-width="1px">11k</text><text x="278.4375" y="0" dx="0em" dy="0.95em" style="text-anchor: middle; visibility: hidden; font-family: Roboto, sans-serif; font-size: 12px; font-weight: 200;" fill="rgb(33, 33, 33)" stroke="none" stroke-width="1px">12k</text></g><line x1="0" y1="0" x2="278.4375" y2="0" fill="rgb(0, 0, 0)" stroke="rgb(204, 204, 204)" stroke-width="1px"></line></g></g></g></g></svg>